<?xml version="1.0" encoding="UTF-8"?>
<svg version="1.1" xmlns="http://www.w3.org/2000/svg" width="689" height="691">
<path d="M0 0 C227.37 0 454.74 0 689 0 C689 228.03 689 456.06 689 691 C461.63 691 234.26 691 0 691 C0 462.97 0 234.94 0 0 Z " fill="#000000" transform="translate(0,0)"/>
<path d="M0 0 C5.011875 -0.061875 10.02375 -0.12375 15.1875 -0.1875 C16.76039795 -0.21481201 18.3332959 -0.24212402 19.95385742 -0.27026367 C21.20013916 -0.27775635 22.4464209 -0.28524902 23.73046875 -0.29296875 C25.63928833 -0.31653442 25.63928833 -0.31653442 27.58666992 -0.34057617 C32.08132692 0.10789293 34.6088804 1.65685004 37.8125 4.75 C39.52868326 8.00171564 39.38162088 10.37460162 39 14 C37.59539303 16.87305972 36.25489001 18.74510999 34 21 C34.804375 21.61875 35.60875 22.2375 36.4375 22.875 C39 25 39 25 40 27 C40.37593152 31.98109259 40.1765161 35.05673864 37 39 C32.82490758 42.15733347 29.67875404 42.35472614 24.51171875 42.29296875 C22.58138794 42.28172974 22.58138794 42.28172974 20.61206055 42.27026367 C18.98695557 42.24295166 17.36185059 42.21563965 15.6875 42.1875 C7.9221875 42.0946875 7.9221875 42.0946875 0 42 C0 28.14 0 14.28 0 0 Z " fill="#FFFFFF" transform="translate(315,321)"/>
<path d="M0 0 C5.011875 -0.061875 10.02375 -0.12375 15.1875 -0.1875 C16.76039795 -0.21481201 18.3332959 -0.24212402 19.95385742 -0.27026367 C21.20013916 -0.27775635 22.4464209 -0.28524902 23.73046875 -0.29296875 C25.63928833 -0.31653442 25.63928833 -0.31653442 27.58666992 -0.34057617 C32.08132692 0.10789293 34.6088804 1.65685004 37.8125 4.75 C39.52868326 8.00171564 39.38162088 10.37460162 39 14 C37.59539303 16.87305972 36.25489001 18.74510999 34 21 C34.804375 21.61875 35.60875 22.2375 36.4375 22.875 C39 25 39 25 40 27 C40.37593152 31.98109259 40.1765161 35.05673864 37 39 C32.82490758 42.15733347 29.67875404 42.35472614 24.51171875 42.29296875 C22.58138794 42.28172974 22.58138794 42.28172974 20.61206055 42.27026367 C18.98695557 42.24295166 17.36185059 42.21563965 15.6875 42.1875 C7.9221875 42.0946875 7.9221875 42.0946875 0 42 C0 28.14 0 14.28 0 0 Z " fill="#FFFFFF" transform="translate(105,321)"/>
<path d="M0 0 C3.3 0 6.6 0 10 0 C9.72510809 4.03174806 9.46508424 5.56894631 6.4375 8.375 C5.633125 8.91125 4.82875 9.4475 4 10 C4.66 10.99 5.32 11.98 6 13 C6.45256282 17.07306536 6.44033197 19.26611339 4.3125 22.8125 C0.24129328 26.66364149 -3.83769172 27.26402363 -9.3125 27.625 C-10.38113281 27.69976562 -11.44976562 27.77453125 -12.55078125 27.8515625 C-13.76314453 27.92503906 -13.76314453 27.92503906 -15 28 C-15 28.66 -15 29.32 -15 30 C-13.13794922 30.05607422 -13.13794922 30.05607422 -11.23828125 30.11328125 C-9.59632489 30.1789595 -7.95439913 30.2454062 -6.3125 30.3125 C-5.49587891 30.33505859 -4.67925781 30.35761719 -3.83789062 30.38085938 C0.88578526 30.59122551 4.14903793 30.97639306 8 34 C10.32826375 37.21522137 10.39711181 40.10830425 10 44 C8.6750788 47.16508952 7.48437795 48.66191069 4.671875 50.625 C-0.74683755 52.65413491 -5.88976814 52.39471376 -11.625 52.3125 C-12.75679688 52.31572266 -13.88859375 52.31894531 -15.0546875 52.32226562 C-24.41497573 52.26126849 -24.41497573 52.26126849 -28 50 C-29.90378868 47.46161509 -30.01222355 46.19557676 -29.8125 43 C-28.99589479 39.98484231 -28.04996025 38.31734637 -26 36 C-26.66 35.01 -27.32 34.02 -28 33 C-27.82531656 29.59367293 -27.22771261 28.25531414 -24.9375 25.6875 C-24.298125 25.130625 -23.65875 24.57375 -23 24 C-23.680625 23.319375 -24.36125 22.63875 -25.0625 21.9375 C-27 19 -27 19 -27 15.4375 C-25.902509 11.66487469 -25.14521419 10.2951563 -22 8 C-17.09323351 5.66928592 -12.05024463 5.64975797 -6.70703125 5.44140625 C-3.68896205 4.94928241 -2.81072433 4.40053682 -1 2 C-0.67 1.34 -0.34 0.68 0 0 Z " fill="#FFFFFF" transform="translate(468,324)"/>
<path d="M0 0 C3.3 0 6.6 0 10 0 C9.72510809 4.03174806 9.46508424 5.56894631 6.4375 8.375 C5.633125 8.91125 4.82875 9.4475 4 10 C4.66 10.99 5.32 11.98 6 13 C6.45256282 17.07306536 6.44033197 19.26611339 4.3125 22.8125 C0.24129328 26.66364149 -3.83769172 27.26402363 -9.3125 27.625 C-10.38113281 27.69976562 -11.44976562 27.77453125 -12.55078125 27.8515625 C-13.76314453 27.92503906 -13.76314453 27.92503906 -15 28 C-15 28.66 -15 29.32 -15 30 C-13.13794922 30.05607422 -13.13794922 30.05607422 -11.23828125 30.11328125 C-9.59632489 30.1789595 -7.95439913 30.2454062 -6.3125 30.3125 C-5.49587891 30.33505859 -4.67925781 30.35761719 -3.83789062 30.38085938 C0.88578526 30.59122551 4.14903793 30.97639306 8 34 C10.32826375 37.21522137 10.39711181 40.10830425 10 44 C8.6750788 47.16508952 7.48437795 48.66191069 4.671875 50.625 C-0.74683755 52.65413491 -5.88976814 52.39471376 -11.625 52.3125 C-12.75679687 52.31572266 -13.88859375 52.31894531 -15.0546875 52.32226562 C-24.41497573 52.26126849 -24.41497573 52.26126849 -28 50 C-29.90378868 47.46161509 -30.01222355 46.19557676 -29.8125 43 C-28.99589479 39.98484231 -28.04996025 38.31734637 -26 36 C-26.66 35.01 -27.32 34.02 -28 33 C-27.82531656 29.59367293 -27.22771261 28.25531414 -24.9375 25.6875 C-24.298125 25.130625 -23.65875 24.57375 -23 24 C-23.680625 23.319375 -24.36125 22.63875 -25.0625 21.9375 C-27 19 -27 19 -27 15.4375 C-25.902509 11.66487469 -25.14521419 10.2951563 -22 8 C-17.09323351 5.66928592 -12.05024463 5.64975797 -6.70703125 5.44140625 C-3.68896205 4.94928241 -2.81072433 4.40053682 -1 2 C-0.67 1.34 -0.34 0.68 0 0 Z " fill="#FFFFFF" transform="translate(238,324)"/>
<path d="M0 0 C3.01846987 1.83732949 4.1701125 2.70171977 5.875 5.75 C6.37601562 8.65974459 6.47695161 11.55224707 6.5625 14.5 C6.59666016 15.29277344 6.63082031 16.08554687 6.66601562 16.90234375 C6.74819104 18.85107504 6.81328045 20.80051362 6.875 22.75 C7.865 23.08 8.855 23.41 9.875 23.75 C9.875 26.39 9.875 29.03 9.875 31.75 C6.69330994 33.34084503 3.33933592 33.15871379 -0.125 32.75 C-1.15625 32.193125 -2.1875 31.63625 -3.25 31.0625 C-4.19875 30.629375 -5.1475 30.19625 -6.125 29.75 C-8.1512871 30.69560065 -10.14879014 31.70377125 -12.125 32.75 C-17.02168512 33.37510874 -21.76705902 33.25911753 -26.125 30.75 C-28.80777915 26.72583127 -28.92269475 23.47800327 -28.125 18.75 C-24.88352577 14.13335488 -21.5922855 12.73590394 -16.125 11.75 C-12.7834518 11.60832617 -9.46677024 11.62897009 -6.125 11.75 C-6.785 10.43 -7.445 9.11 -8.125 7.75 C-10.105 7.75 -12.085 7.75 -14.125 7.75 C-14.455 8.41 -14.785 9.07 -15.125 9.75 C-19.085 9.75 -23.045 9.75 -27.125 9.75 C-26.5236014 4.33741259 -26.5236014 4.33741259 -24.9375 2 C-18.23130875 -2.62495948 -7.47798181 -2.91784791 0 0 Z " fill="#FFFFFF" transform="translate(387.125,331.25)"/>
<path d="M0 0 C3.86920067 2.28993509 6.06284398 4.81318797 8.0625 8.8125 C8.0625 11.7825 8.0625 14.7525 8.0625 17.8125 C0.1425 17.8125 -7.7775 17.8125 -15.9375 17.8125 C-14.60186384 22.75713635 -14.60186384 22.75713635 -11.9375 23.8125 C-10.56407169 23.8814472 -9.18747898 23.89717708 -7.8125 23.875 C-5.894375 23.8440625 -5.894375 23.8440625 -3.9375 23.8125 C-3.6075 22.4925 -3.2775 21.1725 -2.9375 19.8125 C0.6925 19.8125 4.3225 19.8125 8.0625 19.8125 C7.82453532 25.88059922 7.82453532 25.88059922 5.80078125 28.35546875 C0.26175161 33.11317431 -4.84485774 33.16248919 -11.890625 33.09375 C-17.64663427 32.56242607 -21.38773818 30.4019993 -25.375 26.3125 C-28.2473191 21.71678945 -28.48921413 17.1791738 -27.9375 11.8125 C-26.29242949 6.61754049 -24.53237393 3.76634752 -19.9375 0.8125 C-13.72768132 -2.08402616 -6.46955695 -2.45927003 0 0 Z " fill="#FFFFFF" transform="translate(508.9375,331.1875)"/>
<path d="M0 0 C3.86920067 2.28993509 6.06284398 4.81318797 8.0625 8.8125 C8.0625 11.7825 8.0625 14.7525 8.0625 17.8125 C0.1425 17.8125 -7.7775 17.8125 -15.9375 17.8125 C-14.60186384 22.75713635 -14.60186384 22.75713635 -11.9375 23.8125 C-10.56407169 23.8814472 -9.18747898 23.89717708 -7.8125 23.875 C-5.894375 23.8440625 -5.894375 23.8440625 -3.9375 23.8125 C-3.6075 22.4925 -3.2775 21.1725 -2.9375 19.8125 C0.6925 19.8125 4.3225 19.8125 8.0625 19.8125 C7.82453532 25.88059922 7.82453532 25.88059922 5.80078125 28.35546875 C0.26175161 33.11317431 -4.84485774 33.16248919 -11.890625 33.09375 C-17.64663427 32.56242607 -21.38773818 30.4019993 -25.375 26.3125 C-28.2473191 21.71678945 -28.48921413 17.1791738 -27.9375 11.8125 C-26.29242949 6.61754049 -24.53237393 3.76634752 -19.9375 0.8125 C-13.72768132 -2.08402616 -6.46955695 -2.45927003 0 0 Z " fill="#FFFFFF" transform="translate(278.9375,331.1875)"/>
<path d="M0 0 C2.84471738 1.23683364 4.43352078 2.12572139 6.12060547 4.72949219 C7.24301834 7.62744881 7.22575769 9.97271564 7.1953125 13.078125 C7.18886719 14.23828125 7.18242187 15.3984375 7.17578125 16.59375 C7.15902344 17.8003125 7.14226562 19.006875 7.125 20.25 C7.11597656 21.47203125 7.10695313 22.6940625 7.09765625 23.953125 C7.07409603 26.96883366 7.03822539 29.98444158 7 33 C3.04 33 -0.92 33 -5 33 C-5.33 25.74 -5.66 18.48 -6 11 C-10.60532389 9.54685336 -10.60532389 9.54685336 -13 11 C-13.33 18.26 -13.66 25.52 -14 33 C-17.96 33 -21.92 33 -26 33 C-26 22.44 -26 11.88 -26 1 C-22.7 1 -19.4 1 -16 1 C-15.67 1.99 -15.34 2.98 -15 4 C-14.01 3.34 -13.02 2.68 -12 2 C-7.74484511 -0.42044236 -4.85447632 -0.54808604 0 0 Z " fill="#FFFFFF" transform="translate(427,330)"/>
<path d="M0 0 C2.84471738 1.23683364 4.43352078 2.12572139 6.12060547 4.72949219 C7.24301834 7.62744881 7.22575769 9.97271564 7.1953125 13.078125 C7.18886719 14.23828125 7.18242187 15.3984375 7.17578125 16.59375 C7.15902344 17.8003125 7.14226562 19.006875 7.125 20.25 C7.11597656 21.47203125 7.10695312 22.6940625 7.09765625 23.953125 C7.07409603 26.96883366 7.03822539 29.98444158 7 33 C3.04 33 -0.92 33 -5 33 C-5.33 25.74 -5.66 18.48 -6 11 C-10.60532389 9.54685336 -10.60532389 9.54685336 -13 11 C-13.33 18.26 -13.66 25.52 -14 33 C-17.96 33 -21.92 33 -26 33 C-26 22.44 -26 11.88 -26 1 C-22.7 1 -19.4 1 -16 1 C-15.67 1.99 -15.34 2.98 -15 4 C-14.01 3.34 -13.02 2.68 -12 2 C-7.74484511 -0.42044236 -4.85447632 -0.54808604 0 0 Z " fill="#FFFFFF" transform="translate(197,330)"/>
<path d="M0 0 C1.9375 1.4375 1.9375 1.4375 3 3 C3 4.32 3 5.64 3 7 C-0.63 7 -4.26 7 -8 7 C-8 6.34 -8 5.68 -8 5 C-10.31 5 -12.62 5 -15 5 C-15.33 5.66 -15.66 6.32 -16 7 C-14.89140625 7.24234375 -13.7828125 7.4846875 -12.640625 7.734375 C-11.17690757 8.07215594 -9.71337531 8.41073998 -8.25 8.75 C-7.52039063 8.90726562 -6.79078125 9.06453125 -6.0390625 9.2265625 C-1.66983773 10.25928835 1.28103497 11.17667385 4 15 C4.7999441 18.08392243 4.63909487 20.88788584 4 24 C0.96848959 28.19061733 -1.97070419 29.97551382 -7 31 C-13.69989043 31.56761553 -19.14596081 31.46463544 -25 28 C-29 23.8974359 -29 23.8974359 -29 20 C-27.22992286 19.91885894 -25.45877902 19.86074495 -23.6875 19.8125 C-22.70136719 19.77769531 -21.71523438 19.74289062 -20.69921875 19.70703125 C-17.55867427 20.04790077 -17.03296308 20.73064587 -15 23 C-11.87450983 23.25048636 -11.87450983 23.25048636 -9 23 C-8.67 22.34 -8.34 21.68 -8 21 C-9.10859375 20.68546875 -10.2171875 20.3709375 -11.359375 20.046875 C-12.82311608 19.61525904 -14.28664695 19.18292971 -15.75 18.75 C-16.47960937 18.54503906 -17.20921875 18.34007812 -17.9609375 18.12890625 C-22.22783028 16.84883842 -25.27070168 15.7351995 -28 12 C-28.58880855 7.3631327 -28.66959068 5.18466044 -26.375 1.125 C-19.22799313 -5.26969036 -7.97567843 -4.48631912 0 0 Z " fill="#FFFFFF" transform="translate(580,333)"/>
<path d="M0 0 C4.69994029 1.71728588 7.20959499 3.86606666 10 8 C11.68720945 13.06162836 11.51486141 16.73429904 9.5 21.6875 C6.91553415 25.71890271 3.56899609 27.71835082 -1 29 C-4.86589755 29.42708963 -7.70790324 28.83008967 -10.98828125 26.72265625 C-14.17374797 24.13075476 -16.43858055 21.85199231 -18 18 C-18.45604898 13.28749391 -18.49819138 10.99638275 -16.375 6.75 C-11.55431751 1.16815712 -7.28148559 -1.19416364 0 0 Z " fill="#2A0F67" transform="translate(418,392)"/>
<path d="M0 0 C3.5677811 2.35149209 5.84221079 4.99692157 7.75 8.8125 C8.12155705 14.38585568 7.99782829 18.04901851 4.75 22.8125 C1.0241555 26.01845922 -2.38072009 27.59246563 -7.23046875 27.97265625 C-12.24987903 27.57459857 -15.37829695 24.75125713 -18.6875 21.1875 C-20.81161428 16.59941315 -21.16888955 12.78392806 -20.25 7.8125 C-18.61538027 4.29128359 -16.46441032 1.77565301 -13.4375 -0.625 C-8.59072055 -1.87131472 -4.62546296 -1.690073 0 0 Z " fill="#2B0F67" transform="translate(373.25,393.1875)"/>
<path d="M0 0 C4.04291733 2.37512086 7.18663449 4.5316095 8.87109375 9.05859375 C9.40328358 14.64658692 9.12124928 18.29169897 5.87109375 23.05859375 C2.27458562 26.47527647 -0.73117451 27.39175535 -5.56640625 27.68359375 C-10.68097507 27.51613174 -13.29470242 26.12404922 -16.88671875 22.56640625 C-19.80413985 19.0251341 -19.63470434 15.40244226 -19.6171875 10.96484375 C-18.80124446 6.10835076 -15.89548156 3.07508018 -12.12890625 0.05859375 C-7.87495449 -1.35939017 -4.219148 -1.86571499 0 0 Z " fill="#2B0F68" transform="translate(396.12890625,368.94140625)"/>
<path d="M0 0 C4.40608743 2.16298837 7.1987497 4.39680479 9 9 C9.729844 13.33483101 10.00857417 17.21785924 7.79296875 21.1328125 C4.30542541 25.3531814 1.23065118 27.74747345 -4.3125 28.375 C-9.3891952 27.85872591 -12.99559674 26.3817027 -16.328125 22.421875 C-18.95474828 18.31546396 -19.71439663 14.91147681 -19 10 C-14.52037036 1.53847735 -9.40690802 -1.49244214 0 0 Z " fill="#2B0F68" transform="translate(276,297)"/>
<path d="M0 0 C3.04983368 2.52700505 5.41209283 5.26168566 7.1875 8.8125 C7.57441286 13.45545428 7.65940735 15.8686853 5.5625 20.0625 C2.5684015 23.5293509 -0.12057149 26.28488201 -4.765625 27.1953125 C-10.76980867 27.53906347 -14.14287833 25.11389799 -18.625 21.25 C-21.2876224 18.02682552 -21.20305411 14.15161196 -21.1640625 10.16796875 C-20.58395475 6.28124679 -18.63171079 3.49075025 -15.8125 0.8125 C-10.90522578 -2.22292735 -5.24683958 -2.21533227 0 0 Z " fill="#2B0F68" transform="translate(325.8125,393.1875)"/>
<path d="M0 0 C5.33739473 1.98844117 8.45333824 4.90667648 11 10 C11.54280937 16.40515061 10.8679143 19.80885186 7 25 C2.29276681 28.39358672 -2.38411486 28.7383849 -8 28 C-12.17787418 26.42169198 -14.21701324 23.93193152 -16.26953125 19.9609375 C-17.60924867 16.36447683 -17.48766893 13.84039281 -17 10 C-13.3640833 2.72816659 -8.22408457 -1.02801057 0 0 Z " fill="#2A0F67" transform="translate(298,225)"/>
<path d="M0 0 C4.43041256 2.13609177 7.16159481 4.40398702 9 9 C9.83617033 13.93340496 9.59268623 17.73488671 6.75 21.9375 C4.79813682 24.48576582 3.00534033 25.84659912 0 27 C-5.04629234 27.64676772 -9.51097762 27.83757509 -14 25.3125 C-18.0542754 20.62474407 -19.57270447 17.43192306 -19.35546875 11.21484375 C-18.66967171 6.94180065 -16.31929962 4.19650766 -13.1953125 1.36328125 C-9.13565302 -1.15775284 -4.60728465 -0.60095017 0 0 Z " fill="#2B0F67" transform="translate(396,417)"/>
<path d="M0 0 C4.30543683 2.23551528 7.60229159 4.7579005 10 9 C10.85392795 13.32853133 10.99361994 17.19761964 8.82421875 21.1328125 C4.98474745 25.87510522 1.64713801 27.71122131 -4.4375 28.375 C-10.00119448 27.78934795 -12.78500019 25.40684189 -16.375 21.25 C-18.36877185 17.26245631 -18.8565765 14.37028828 -18 10 C-14.26645869 2.53291738 -8.35924786 -1.65513108 0 0 Z " fill="#2A0F67" transform="translate(299,368)"/>
<path d="M0 0 C3.88924158 1.8057193 5.51165031 3.26747547 7.875 6.8125 C9.37965797 11.07569758 9.93170493 14.57055435 8.2734375 18.89453125 C6.18915773 22.91905519 4.26190177 25.45846106 0 27 C-4.4310157 27.60299755 -8.85390815 28.03063304 -12.9765625 26.05078125 C-16.18983281 23.54189778 -18.08457157 20.93634226 -19 17 C-19.46121468 12.15724585 -19.5309553 10.00502253 -17.25 5.6875 C-12.10813549 -0.4541715 -7.79488504 -1.0054272 0 0 Z " fill="#2B0F68" transform="translate(444,417)"/>
<path d="M0 0 C4.30746475 2.23656823 7.52075882 4.80436107 10 9 C10.62409585 14.61686269 10.18169427 18.1726018 7 23 C2.68193778 26.89678785 0.00183744 28.37367126 -5.90625 28.27734375 C-10.65319608 27.64855052 -13.37145877 24.72778458 -16.375 21.25 C-18.36877185 17.26245631 -18.8565765 14.37028828 -18 10 C-14.26645869 2.53291738 -8.35924786 -1.65513108 0 0 Z " fill="#2A0F67" transform="translate(418,297)"/>
<path d="M0 0 C4.4331235 2.13739883 7.12530646 4.4174158 9 9 C9.7205356 15.38188672 8.84405165 18.84087804 5 24 C0.94309354 26.92474652 -2.84894063 27.5918239 -7.75 27.41796875 C-11.62812922 26.69755239 -14.28144923 24.79578233 -17 22 C-19.45695548 18.0475064 -19.73202295 13.5528257 -19 9 C-14.44356379 0.37531717 -9.33096617 -1.21708254 0 0 Z " fill="#2B0F67" transform="translate(420,441)"/>
<path d="M0 0 C4.30545186 2.23552308 7.56243355 4.78113499 10 9 C10.86181376 13.74876972 10.47733811 17.07941936 8.25 21.375 C4.46952757 25.78555117 1.56604986 27.75791982 -4.3125 28.3125 C-9.97363984 27.83274239 -12.73199141 25.46822047 -16.375 21.25 C-18.36877185 17.26245631 -18.8565765 14.37028828 -18 10 C-14.26645869 2.53291738 -8.35924786 -1.65513108 0 0 Z " fill="#2A0F67" transform="translate(299,273)"/>
<path d="M0 0 C4.28575173 2.26892739 7.5624855 4.7812249 10 9 C10.72597593 13.40479775 10.29626314 17.07635611 8.9375 21.3125 C6.05063137 25.31686616 2.7753358 27.47493647 -2.0234375 28.3828125 C-7.16391423 28.6782422 -10.13118668 27.2390065 -14 24 C-17.25205201 20.97222744 -17.78940661 17.60326125 -18.12109375 13.3125 C-17.91844948 9.44264804 -16.57857791 6.8519515 -14 4 C-9.67584551 0.39119947 -5.66003841 -0.82327831 0 0 Z " fill="#2A0F67" transform="translate(275,249)"/>
<path d="M0 0 C4.40830916 2.16407904 7.12843553 4.42506462 9 9 C9.53647806 14.63301965 9.16601282 18.13790888 6 23 C1.75784802 26.84445023 -2.25832496 27.30556471 -7.78515625 27.20703125 C-10.97305189 26.90904453 -12.60065319 26.12513575 -15 24 C-18.77109363 18.80200607 -19.81155954 15.39103136 -19 9 C-14.7433041 0.6442636 -8.94458542 -1.29008444 0 0 Z " fill="#2B0F67" transform="translate(372,441)"/>
<path d="M0 0 C5.34740414 1.95385921 8.45618143 4.91236287 11 10 C11.66362382 15.53019848 10.56089195 18.8064038 7.484375 23.265625 C4.34166945 26.93762833 1.17442214 27.85319723 -3.5 28.4375 C-8.98136378 27.75232953 -11.78053294 25.37992325 -15.375 21.3125 C-17.48144745 17.0185879 -18.20629419 13.68325979 -17 9 C-12.46693717 2.00613163 -8.44796336 -0.86686191 0 0 Z " fill="#2A0F67" transform="translate(227,297)"/>
<path d="M0 0 C4.75382236 1.58460745 7.40096929 3.99140455 10.0859375 8.10546875 C11.59477186 11.23275365 11.49340272 13.60785627 11 17 C9.26896578 21.64646027 7.26893904 24.43863658 3 27 C-3.05491591 28.46489901 -6.41590949 28.11420432 -12 25 C-15.26332771 22.25193456 -16.60550761 20.27281412 -17.34375 16.01953125 C-17.60797105 12.28740893 -17.56540845 9.88363572 -15.5078125 6.66796875 C-10.65018875 1.0746468 -7.58471687 -0.75138317 0 0 Z " fill="#2A0F67" transform="translate(227,392)"/>
<path d="M0 0 C4.68170268 1.74416374 7.21249191 3.87035839 10 8 C11.20643566 11.61930698 11.32268559 14.19231005 11 18 C8.94618797 21.81422234 6.89453363 25.00010435 3 27 C-1.97569434 28.12233707 -6.49156208 28.7551565 -11 26 C-15.33495462 22.15765386 -16.83464085 20.01738159 -17.3125 14.1875 C-17.23978205 9.78402422 -15.90966369 7.36908427 -13 4 C-8.62840367 0.30842977 -5.69599218 -0.71199902 0 0 Z " fill="#2A0F67" transform="translate(346,368)"/>
<path d="M0 0 C4.31359408 2.36329888 7.10212077 5.47157187 9 10 C9.68666102 16.06550567 8.43816222 19.16798823 5 24 C1.13493423 27.63081936 -3.25673073 27.56171988 -8.3359375 27.41796875 C-12.61755235 26.74621979 -14.17286483 25.26207904 -17 22 C-19.38729583 17.98500246 -19.73574784 13.57599269 -19 9 C-14.56110555 0.59780694 -9.22457538 -1.62863266 0 0 Z " fill="#2B0F68" transform="translate(468,393)"/>
<path d="M0 0 C4.35924956 2.24510707 6.97177893 4.81755018 9.1328125 9.3125 C9.99787714 13.7715961 9.51148346 16.59572996 7.3828125 20.625 C3.63634316 25.09994949 0.72052264 27.0683764 -5.1796875 27.625 C-10.36442611 27.18561537 -13.28320505 25.11496279 -16.6796875 21.25 C-19.14476878 17.22802528 -19.76828145 12.91060559 -18.8671875 8.3125 C-14.70586907 1.34534146 -8.2959831 -3.05458792 0 0 Z " fill="#2A0F67" transform="translate(323.8671875,249.6875)"/>
<path d="M0 0 C3.88924158 1.8057193 5.51165031 3.26747547 7.875 6.8125 C9.19527938 10.55329157 9.49277138 13.05782897 9 17 C6.42422676 21.61862787 4.0807921 25.30640263 -1 27 C-5.6594918 27.54138857 -9.10553068 27.43067041 -13.375 25.375 C-17.37373136 21.7571002 -18.84123865 18.8098794 -19.3125 13.4375 C-18.85304349 8.38347836 -17.90189232 6.04064499 -14.5625 2.1875 C-10.22755202 -1.17820899 -5.20799804 -0.82924969 0 0 Z " fill="#2B0F68" transform="translate(468,441)"/>
<path d="M0 0 C3.2277235 2.12736321 4.89407493 3.38617679 6.75 6.8125 C7.40138512 11.67227216 7.36224364 16.11982641 5.6875 20.75 C1.98181038 24.69476637 -1.48739897 26.56069985 -6.75 27.3125 C-12.02356435 26.55913366 -15.5283575 24.70075306 -19.1875 20.6875 C-20.78686742 16.35979994 -20.906874 12.36682641 -20.25 7.8125 C-15.97995106 -0.88574785 -8.91460387 -3.25725911 0 0 Z " fill="#2B0F67" transform="translate(373.25,298.1875)"/>
<path d="M0 0 C3.45383685 2.35488876 4.9543281 4.07646328 6.75 7.875 C7.40002973 12.43251179 7.28802004 16.41918107 5.6875 20.75 C2.0283575 24.76325306 -1.47643565 26.62163366 -6.75 27.375 C-12.01260103 26.62319985 -15.48181038 24.75726637 -19.1875 20.8125 C-20.86770477 16.16722799 -21.02123069 11.74517899 -20.25 6.875 C-18.63735434 3.6369099 -16.31259073 1.68110332 -13.4375 -0.5 C-8.65372203 -1.86679371 -4.61162496 -1.59633172 0 0 Z " fill="#2B0F67" transform="translate(254.25,274.125)"/>
<path d="M0 0 C3.2277235 2.12736321 4.89407493 3.38617679 6.75 6.8125 C7.54448427 12.12257343 7.39735479 16.41819737 5.125 21.3125 C1.48098616 25.14830404 -1.50654457 26.59456807 -6.75 27.25 C-11.9573741 26.59907824 -15.92029537 23.84319507 -19.25 19.8125 C-20.60698258 15.74155226 -20.77387231 12.06896256 -20.25 7.8125 C-15.91326445 -0.86097109 -8.95063053 -3.27042269 0 0 Z " fill="#2B0F67" transform="translate(349.25,274.1875)"/>
<path d="M0 0 C4.28635138 2.26924485 7.60201503 4.7574112 10 9 C10.67302515 13.58262071 10.58809792 17.57618398 8.8125 21.875 C3.85086163 27.69209326 3.85086163 27.69209326 -0.11328125 28.3515625 C-5.11421503 28.53647098 -8.75197954 27.83201364 -13 25 C-16.72900849 20.88523201 -17.46205912 16.76094844 -17.41796875 11.35546875 C-16.68836033 7.24375027 -14.1477344 4.60626633 -11 2 C-7.20900711 -0.2225625 -4.40760175 -0.4559588 0 0 Z " fill="#2B0F68" transform="translate(346,225)"/>
<path d="M0 0 C4.28635138 2.26924485 7.60201503 4.7574112 10 9 C10.82107271 14.0018409 10.54786497 17.84105487 8.375 22.4375 C4.75545807 26.34279524 1.79204088 27.80799562 -3.5 28.375 C-8.79204088 27.80799562 -11.75545807 26.34279524 -15.375 22.4375 C-17.5565978 17.82258159 -18.06141444 14.01399508 -17 9 C-13.08535995 2.11781023 -7.91766942 -0.81906925 0 0 Z " fill="#2B0F68" transform="translate(251,225)"/>
<path d="M0 0 C6.87893593 5.57751562 6.87893593 5.57751562 7.73046875 10.08984375 C7.89502673 14.79933637 7.40008943 18.14859896 4.3125 21.875 C0.77876222 25.61660471 -2.40225866 26.68878311 -7.40625 27.0390625 C-12.24409609 26.69113521 -15.3825019 24.30628824 -18.625 20.75 C-20.22436742 16.42229994 -20.344374 12.42932641 -19.6875 7.875 C-15.63985421 -0.37020439 -8.54996494 -3.57905509 0 0 Z " fill="#2B0F68" transform="translate(277.6875,393.125)"/>
<path d="M0 0 C4.40617281 2.16303029 7.1644597 4.41114924 9 9 C9.68213968 13.54759787 9.25876407 17.18058045 7.875 21.5625 C3.02446746 25.67490802 -2.90601712 24.43993994 -9 24 C-9 24.99 -9 25.98 -9 27 C-12.901043 25.88541629 -15.54072516 24.1420384 -18.046875 20.90625 C-19.96492485 17.07015029 -19.72734313 13.14181503 -19 9 C-14.87937455 0.60613334 -8.8695018 -1.27925507 0 0 Z " fill="#2B0F68" transform="translate(324,297)"/>
<path d="M0 0 C3.99953488 1.91215858 6.31518753 4.95344147 8 9 C8.73285105 13.68683808 8.44402628 17.14366361 6.25 21.375 C1.61547479 26.78194607 1.61547479 26.78194607 -2.69140625 27.36328125 C-4.11259766 27.33814453 -4.11259766 27.33814453 -5.5625 27.3125 C-6.51253906 27.30863281 -7.46257812 27.30476563 -8.44140625 27.30078125 C-11 27 -11 27 -14 25 C-14.48841843 23.01376503 -14.97143584 21.0254271 -15.390625 19.0234375 C-15.94420758 16.720149 -15.94420758 16.720149 -18.1875 14.3125 C-20 12 -20 12 -20 9.5 C-16.2045457 0.01136425 -9.31335516 -1.21799493 0 0 Z " fill="#2B0F68" transform="translate(301,321)"/>
<path d="M0 0 C0.33 1.32 0.66 2.64 1 4 C6.94 4.99 6.94 4.99 13 6 C14.73436191 11.20308572 14.76981912 15.33205856 12.5 20.25 C8.95718303 24.14709867 5.26825019 26.69398406 -0.0859375 27.1953125 C-5.44316295 26.84637444 -8.30104835 24.78702193 -12 21 C-14.54759902 16.76854272 -14.67825448 12.82314294 -14 8 C-10.92412758 1.84825517 -7.06499571 -2.22042722 0 0 Z " fill="#2A0F67" transform="translate(439,370)"/>
<path d="M0 0 C5.4770912 0.63687107 9.12028746 1.86101676 12.8125 6.0625 C14.56886986 10.40720438 14.66642925 14.3794239 14 19 C11.83696971 23.40617281 9.58885076 26.1644597 5 28 C0.03049822 28.84228844 -3.73269626 28.59311595 -7.9375 25.6875 C-10.23415902 23.87949184 -11.32497363 22.51253956 -13 20 C-13.1953125 17.30078125 -13.1953125 17.30078125 -13.125 14.3125 C-13.10695312 13.31863281 -13.08890625 12.32476562 -13.0703125 11.30078125 C-13.04710937 10.54152344 -13.02390625 9.78226562 -13 9 C-12.38511719 8.74605469 -11.77023438 8.49210937 -11.13671875 8.23046875 C-10.32847656 7.88628906 -9.52023438 7.54210937 -8.6875 7.1875 C-7.88699219 6.85105469 -7.08648437 6.51460938 -6.26171875 6.16796875 C-3.24645206 4.61086212 -1.51574046 3.03148092 0 0 Z " fill="#2B0F68" transform="translate(247,368)"/>
<path d="M0 0 C1 1 1 1 1.09765625 3.28515625 C1.08605469 4.20167969 1.07445312 5.11820312 1.0625 6.0625 C1.05347656 6.98160156 1.04445313 7.90070313 1.03515625 8.84765625 C1.02355469 9.55792969 1.01195312 10.26820313 1 11 C0.36191406 11.12117188 -0.27617188 11.24234375 -0.93359375 11.3671875 C-1.75988281 11.53476562 -2.58617187 11.70234375 -3.4375 11.875 C-4.67306641 12.11863281 -4.67306641 12.11863281 -5.93359375 12.3671875 C-6.61550781 12.57601563 -7.29742188 12.78484375 -8 13 C-9.11823815 15.23647631 -9.19396061 16.64891529 -9.31640625 19.1328125 C-9.35830078 19.93847656 -9.40019531 20.74414062 -9.44335938 21.57421875 C-9.50233398 22.83685547 -9.50233398 22.83685547 -9.5625 24.125 C-9.60568359 24.97449219 -9.64886719 25.82398438 -9.69335938 26.69921875 C-9.79954236 28.79928223 -9.90028497 30.89961948 -10 33 C-13.96 33 -17.92 33 -22 33 C-22 22.44 -22 11.88 -22 1 C-18.7 1 -15.4 1 -12 1 C-11.67 1.99 -11.34 2.98 -11 4 C-10.29875 3.34 -9.5975 2.68 -8.875 2 C-5.55622323 -0.30871428 -3.95355026 -0.44926708 0 0 Z " fill="#FFFFFF" transform="translate(546,330)"/>
<path d="M0 0 C2.375 0.6875 2.375 0.6875 3.375 1.6875 C3.46200342 3.32222882 3.48201063 4.96064055 3.47265625 6.59765625 C3.46943359 7.58701172 3.46621094 8.57636719 3.46289062 9.59570312 C3.45451172 10.63662109 3.44613281 11.67753906 3.4375 12.75 C3.43298828 13.79478516 3.42847656 14.83957031 3.42382812 15.91601562 C3.41199913 18.5065666 3.39551689 21.09700559 3.375 23.6875 C5.355 23.6875 7.335 23.6875 9.375 23.6875 C8.02344718 28.11076378 6.17609562 30.09162982 2.375 32.6875 C-1.70654889 34.0480163 -5.39088049 34.48866991 -9.53125 33.00390625 C-13.93710964 30.75430419 -15.80308872 28.40303508 -17.625 23.6875 C-13.665 23.6875 -9.705 23.6875 -5.625 23.6875 C-5.65980469 22.12257813 -5.69460938 20.55765625 -5.73046875 18.9453125 C-5.75860077 16.90105236 -5.78590155 14.85678067 -5.8125 12.8125 C-5.83763672 11.77996094 -5.86277344 10.74742187 -5.88867188 9.68359375 C-5.89833984 8.69746094 -5.90800781 7.71132813 -5.91796875 6.6953125 C-5.94153442 5.32850342 -5.94153442 5.32850342 -5.96557617 3.93408203 C-5.85318604 3.19270996 -5.7407959 2.45133789 -5.625 1.6875 C-2.625 -0.3125 -2.625 -0.3125 0 0 Z " fill="#2B0F68" transform="translate(418.625,339.3125)"/>
<path d="M0 0 C3.96 0 7.92 0 12 0 C12 10.56 12 21.12 12 32 C8.04 32 4.08 32 0 32 C0 21.44 0 10.88 0 0 Z " fill="#FFFFFF" transform="translate(151,331)"/>
<path d="M0 0 C5.21684078 1.77175725 7.2730641 4.28030325 10 9 C9.01 9.33 8.02 9.66 7 10 C7.05220703 11.35544922 7.05220703 11.35544922 7.10546875 12.73828125 C7.13253906 13.91777344 7.15960938 15.09726562 7.1875 16.3125 C7.23970703 18.07013672 7.23970703 18.07013672 7.29296875 19.86328125 C7 23 7 23 5.80078125 24.85546875 C3.5726531 26.27161094 1.59902075 26.64878098 -1 27 C-1.03738281 26.25234375 -1.07476562 25.5046875 -1.11328125 24.734375 C-1.17902344 23.74953125 -1.24476563 22.7646875 -1.3125 21.75 C-1.37050781 20.77546875 -1.42851562 19.8009375 -1.48828125 18.796875 C-2.07286346 15.60175392 -2.64702534 14.23333188 -5 12 C-7.93747529 10.87353193 -7.93747529 10.87353193 -11.1875 10.25 C-12.27417969 10.00765625 -13.36085938 9.7653125 -14.48046875 9.515625 C-15.72763672 9.26039063 -15.72763672 9.26039063 -17 9 C-12.6087257 1.43446171 -8.756094 -1.25308059 0 0 Z " fill="#2B0F68" transform="translate(394,321)"/>
<path d="M0 0 C0 5.94 0 11.88 0 18 C5.61 18 11.22 18 17 18 C14.82950512 23.42623719 13.97679078 24.37075204 9 27 C4.57967012 28.30972737 1.85920218 28.21658086 -2.25 26.3125 C-6.50470789 23.92591337 -8.44981345 21.65055964 -10 17 C-10.50171564 10.87906919 -10.08833623 7.8832905 -6 3 C-2.6 0 -2.6 0 0 0 Z " fill="#2A0F67" transform="translate(315,345)"/>
<path d="M0 0 C5.1309763 0.13610017 7.90606761 1.27166936 11.51171875 4.89453125 C13.11823189 7.05850951 13.67097841 8.87576594 13.75 11.5625 C12.821875 12.078125 11.89375 12.59375 10.9375 13.125 C6.45000839 16.10960527 5.25507223 20.40446412 4.0625 25.5 C3.9078125 26.5209375 3.9078125 26.5209375 3.75 27.5625 C0.78 27.5625 -2.19 27.5625 -5.25 27.5625 C-4.92 26.2425 -4.59 24.9225 -4.25 23.5625 C-4.02209338 19.30824307 -3.91405424 16.21241525 -6.25 12.5625 C-5.46625 12.19125 -4.6825 11.82 -3.875 11.4375 C-0.64371171 9.12943694 -0.17493788 7.34633679 0.75 3.5625 C-2.22 3.5625 -5.19 3.5625 -8.25 3.5625 C-4.93880249 0.25130249 -4.4242462 0.09268672 0 0 Z " fill="#2B0F69" transform="translate(247.25,320.4375)"/>
<path d="M0 0 C0.99 0.33 1.98 0.66 3 1 C2.34 1.474375 1.68 1.94875 1 2.4375 C-1.87751779 6.12431967 -1.50865551 9.47213214 -1 14 C-0.67 14.99 -0.34 15.98 0 17 C6.82426275 18.76110006 13.45513135 18.68507432 20 16 C18.67761712 21.68624639 16.55651636 23.67754016 12 27 C8.92805092 28.53597454 6.39755707 28.2265038 3 28 C-1.11678792 26.38557336 -4.3741488 24.59838868 -7 21 C-8.58862525 14.75140737 -7.96055847 9.76291916 -5 4 C-2.5 1.375 -2.5 1.375 0 0 Z " fill="#2A0F67" transform="translate(361,345)"/>
<path d="M0 0 C0.33 0 0.66 0 1 0 C1.55568544 3.77866101 1.02455868 4.9642145 -1.1875 8.1875 C-5.0966147 12.0966147 -7.97484729 13.07897114 -13.375 13.5 C-17.98305384 13.39982492 -20.4347406 11.83438038 -23.69140625 8.66796875 C-25.37966273 6.51607169 -25.91986641 4.72454216 -26 2 C-24.88625 2.495 -24.88625 2.495 -23.75 3 C-15.85647702 5.10493946 -8.19396813 4.99664896 -1 1 C-0.67 0.67 -0.34 0.34 0 0 Z " fill="#2A0F67" transform="translate(284,359)"/>
<path d="M0 0 C2.4521057 1.87994771 3.60358796 3.62701023 4.875 6.4375 C4.5625 8.75 4.5625 8.75 3.875 10.4375 C3.24207031 9.95667969 2.60914063 9.47585938 1.95703125 8.98046875 C-2.19679471 6.90092343 -5.85205203 6.87666983 -10.4375 6.75 C-11.27345703 6.71583984 -12.10941406 6.68167969 -12.97070312 6.64648438 C-15.02167772 6.56444539 -17.07331538 6.4992849 -19.125 6.4375 C-19.125 5.1175 -19.125 3.7975 -19.125 2.4375 C-18.31675781 2.38851563 -17.50851562 2.33953125 -16.67578125 2.2890625 C-15.60714844 2.21429688 -14.53851563 2.13953125 -13.4375 2.0625 C-11.85388672 1.95808594 -11.85388672 1.95808594 -10.23828125 1.8515625 C-6.65892571 1.3755127 -3.45153399 -0.91364135 0 0 Z " fill="#2B0F68" transform="translate(472.125,348.5625)"/>
<path d="M0 0 C3.96 0 7.92 0 12 0 C12 2.64 12 5.28 12 8 C8.04 8 4.08 8 0 8 C0 5.36 0 2.72 0 0 Z " fill="#FFFFFF" transform="translate(151,319)"/>
<path d="M0 0 C1.81242052 -0.02687279 3.62495233 -0.04633715 5.4375 -0.0625 C6.44683594 -0.07410156 7.45617187 -0.08570313 8.49609375 -0.09765625 C11 0 11 0 12 1 C12.125 4 12.125 4 12 7 C11 8 11 8 8.49609375 8.09765625 C6.98208984 8.08025391 6.98208984 8.08025391 5.4375 8.0625 C4.42558594 8.05347656 3.41367187 8.04445313 2.37109375 8.03515625 C1.58863281 8.02355469 0.80617188 8.01195312 0 8 C0 5.36 0 2.72 0 0 Z " fill="#280E62" transform="translate(328,330)"/>
<path d="M0 0 C1.81242052 -0.02687279 3.62495233 -0.04633715 5.4375 -0.0625 C6.44683594 -0.07410156 7.45617187 -0.08570313 8.49609375 -0.09765625 C11 0 11 0 12 1 C12.125 4 12.125 4 12 7 C11 8 11 8 8.49609375 8.09765625 C6.98208984 8.08025391 6.98208984 8.08025391 5.4375 8.0625 C4.42558594 8.05347656 3.41367188 8.04445313 2.37109375 8.03515625 C1.58863281 8.02355469 0.80617188 8.01195312 0 8 C0 5.36 0 2.72 0 0 Z " fill="#000000" transform="translate(118,330)"/>
<path d="M0 0 C6.27 0 12.54 0 19 0 C19.33 0.66 19.66 1.32 20 2 C17.69 2 15.38 2 13 2 C12.87625 2.639375 12.7525 3.27875 12.625 3.9375 C12.41875 4.618125 12.2125 5.29875 12 6 C9.22899606 7.38550197 7.0665294 7.1877467 4 7 C3.01 6.34 2.02 5.68 1 5 C0.67 3.35 0.34 1.7 0 0 Z " fill="#2B0F69" transform="translate(263,349)"/>
<path d="M0 0 C1.97909398 -0.02686553 3.95828971 -0.04633375 5.9375 -0.0625 C7.03964844 -0.07410156 8.14179688 -0.08570313 9.27734375 -0.09765625 C12 0 12 0 13 1 C13.125 3.5 13.125 3.5 13 6 C12 7 12 7 9.27734375 7.09765625 C7.62412109 7.08025391 7.62412109 7.08025391 5.9375 7.0625 C4.83277344 7.05347656 3.72804688 7.04445313 2.58984375 7.03515625 C1.30787109 7.01775391 1.30787109 7.01775391 0 7 C0 4.69 0 2.38 0 0 Z " fill="#0A0319" transform="translate(328,346)"/>
<path d="M0 0 C1.97909398 -0.02686553 3.95828971 -0.04633375 5.9375 -0.0625 C7.03964844 -0.07410156 8.14179687 -0.08570313 9.27734375 -0.09765625 C12 0 12 0 13 1 C13.125 3.5 13.125 3.5 13 6 C12 7 12 7 9.27734375 7.09765625 C7.62412109 7.08025391 7.62412109 7.08025391 5.9375 7.0625 C4.83277344 7.05347656 3.72804688 7.04445313 2.58984375 7.03515625 C1.30787109 7.01775391 1.30787109 7.01775391 0 7 C0 4.69 0 2.38 0 0 Z " fill="#000000" transform="translate(118,346)"/>
<path d="M0 0 C1.79244141 0.01740234 1.79244141 0.01740234 3.62109375 0.03515625 C5.41740234 0.04869141 5.41740234 0.04869141 7.25 0.0625 C8.17683594 0.07410156 9.10367187 0.08570313 10.05859375 0.09765625 C10.71859375 1.41765625 11.37859375 2.73765625 12.05859375 4.09765625 C10.05859375 6.09765625 10.05859375 6.09765625 7.01953125 6.29296875 C5.83617187 6.26976562 4.6528125 6.2465625 3.43359375 6.22265625 C2.24507813 6.20460938 1.0565625 6.1865625 -0.16796875 6.16796875 C-1.08320313 6.14476562 -1.9984375 6.1215625 -2.94140625 6.09765625 C-3.32359392 4.44150968 -3.65535727 2.77308601 -3.94140625 1.09765625 C-2.94140625 0.09765625 -2.94140625 0.09765625 0 0 Z " fill="#290F63" transform="translate(453.94140625,362.90234375)"/>
<path d="M0 0 C1.79244141 0.01740234 1.79244141 0.01740234 3.62109375 0.03515625 C5.41740234 0.04869141 5.41740234 0.04869141 7.25 0.0625 C8.17683594 0.07410156 9.10367188 0.08570313 10.05859375 0.09765625 C10.71859375 1.41765625 11.37859375 2.73765625 12.05859375 4.09765625 C10.05859375 6.09765625 10.05859375 6.09765625 7.01953125 6.29296875 C5.83617187 6.26976562 4.6528125 6.2465625 3.43359375 6.22265625 C2.24507812 6.20460938 1.0565625 6.1865625 -0.16796875 6.16796875 C-1.08320313 6.14476562 -1.9984375 6.1215625 -2.94140625 6.09765625 C-3.32359392 4.44150968 -3.65535727 2.77308601 -3.94140625 1.09765625 C-2.94140625 0.09765625 -2.94140625 0.09765625 0 0 Z " fill="#2A0F67" transform="translate(223.94140625,362.90234375)"/>
<path d="M0 0 C3.81567647 1.22646744 5.41466233 3.58643614 7.234375 7.07421875 C8.5018807 10.26238359 8.48260959 12.62173288 8 16 C6.85359818 18.52504884 5.52504578 20.66477366 4 23 C2.02 22.01 0.04 21.02 -2 20 C-0.7934375 19.1028125 -0.7934375 19.1028125 0.4375 18.1875 C3.67656469 15.42244478 3.91774806 13.87187054 4.3125 9.6875 C3.94754969 5.38108632 2.62610957 3.36470289 0 0 Z " fill="#280E61" transform="translate(349,322)"/>
<path d="M0 0 C3.625 0.375 3.625 0.375 7 1 C7 3.31 7 5.62 7 8 C3.625 8.625 3.625 8.625 0 9 C-2 7 -2 7 -2.25 4.5 C-2 2 -2 2 0 0 Z " fill="#000000" transform="translate(455,336)"/>
<path d="M0 0 C3.625 0.375 3.625 0.375 7 1 C7 3.31 7 5.62 7 8 C3.625 8.625 3.625 8.625 0 9 C-2 7 -2 7 -2.25 4.5 C-2 2 -2 2 0 0 Z " fill="#010002" transform="translate(225,336)"/>
<path d="M0 0 C0.1875 2.375 0.1875 2.375 0 5 C-3.4352048 7.29013653 -4.985331 7.17842973 -9 7 C-9.33 5.35 -9.66 3.7 -10 2 C-6.5980513 -0.09350689 -3.94727588 -0.17942163 0 0 Z " fill="#240D58" transform="translate(381,349)"/>
<path d="M0 0 C4.29 0 8.58 0 13 0 C13.33 1.32 13.66 2.64 14 4 C9.38 4 4.76 4 0 4 C0 2.68 0 1.36 0 0 Z " fill="#2B0F68" transform="translate(223,351)"/>
<path d="M0 0 C1 1 1 1 1.0625 3.5625 C1.041875 4.366875 1.02125 5.17125 1 6 C-1.97 5.67 -4.94 5.34 -8 5 C-7.625 2.5625 -7.625 2.5625 -7 0 C-4.31633121 -1.3418344 -2.84719317 -0.73004953 0 0 Z " fill="#010004" transform="translate(421,340)"/>
<path d="M0 0 C2 2 2 2 2 5 C-1.96 5 -5.92 5 -10 5 C-7.28572348 -0.42855305 -5.81430009 -0.36339376 0 0 Z " fill="#000000" transform="translate(503,338)"/>
<path d="M0 0 C2 2 2 2 2 5 C-1.96 5 -5.92 5 -10 5 C-7.28572348 -0.42855305 -5.81430009 -0.36339376 0 0 Z " fill="#000000" transform="translate(273,338)"/>
<path d="M0 0 C1.2065625 0.0309375 1.2065625 0.0309375 2.4375 0.0625 C3 2 3 2 3.4375 4.0625 C2.4375 5.0625 2.4375 5.0625 -0.125 5.125 C-1.3315625 5.0940625 -1.3315625 5.0940625 -2.5625 5.0625 C-3.125 3.125 -3.125 3.125 -3.5625 1.0625 C-2.5625 0.0625 -2.5625 0.0625 0 0 Z " fill="#260D5D" transform="translate(414.5625,379.9375)"/>
<path d="M0 0 C2.0625 0.4375 2.0625 0.4375 4 1 C4.33 2.32 4.66 3.64 5 5 C3.35 5.33 1.7 5.66 0 6 C-0.38218767 4.34385343 -0.71395102 2.67542976 -1 1 C-0.67 0.67 -0.34 0.34 0 0 Z " fill="#280E60" transform="translate(389,403)"/>
<path d="M0 0 C-0.33 1.65 -0.66 3.3 -1 5 C-2.65 4.67 -4.3 4.34 -6 4 C-6 2.68 -6 1.36 -6 0 C-3.50907189 -1.24546405 -2.58919267 -0.7767578 0 0 Z " fill="#220C52" transform="translate(298,261)"/>
<path d="M0 0 C1.65 0.33 3.3 0.66 5 1 C5 2.32 5 3.64 5 5 C3.125 5.625 3.125 5.625 1 6 C0.34 5.34 -0.32 4.68 -1 4 C-0.625 1.875 -0.625 1.875 0 0 Z " fill="#260D5E" transform="translate(293,308)"/>
<path d="M0 0 C2.0625 0.4375 2.0625 0.4375 4 1 C3.67 2.65 3.34 4.3 3 6 C1.68 5.67 0.36 5.34 -1 5 C-1 1 -1 1 0 0 Z " fill="#240D57" transform="translate(294,403)"/>
<path d="M0 0 C1.32 0.66 2.64 1.32 4 2 C3.67 3.32 3.34 4.64 3 6 C1.35 5.67 -0.3 5.34 -2 5 C-1.125 1.125 -1.125 1.125 0 0 Z " fill="#280E62" transform="translate(318,379)"/>
<path d="M0 0 C2.0625 0.4375 2.0625 0.4375 4 1 C4 2.32 4 3.64 4 5 C2.68 5.33 1.36 5.66 0 6 C-0.38218767 4.34385343 -0.71395102 2.67542976 -1 1 C-0.67 0.67 -0.34 0.34 0 0 Z " fill="#270E61" transform="translate(341,308)"/>
<path d="M0 0 C1.65 0 3.3 0 5 0 C5.33 1.32 5.66 2.64 6 4 C4.35 4.33 2.7 4.66 1 5 C0.67 3.35 0.34 1.7 0 0 Z " fill="#290E64" transform="translate(364,380)"/>
<path d="M0 0 C1.65 0.33 3.3 0.66 5 1 C4.67 2.32 4.34 3.64 4 5 C2.35 4.67 0.7 4.34 -1 4 C-0.67 2.68 -0.34 1.36 0 0 Z " fill="#270E5E" transform="translate(437,452)"/>
<path d="M0 0 C1.65 0.33 3.3 0.66 5 1 C4.67 2.32 4.34 3.64 4 5 C2.35 4.67 0.7 4.34 -1 4 C-0.67 2.68 -0.34 1.36 0 0 Z " fill="#270E5E" transform="translate(389,452)"/>
<path d="M0 0 C1.65 0.33 3.3 0.66 5 1 C4.67 2.32 4.34 3.64 4 5 C2.35 4.67 0.7 4.34 -1 4 C-0.67 2.68 -0.34 1.36 0 0 Z " fill="#260E5E" transform="translate(413,428)"/>
<path d="M0 0 C1.65 0.33 3.3 0.66 5 1 C4.67 2.32 4.34 3.64 4 5 C2.35 4.67 0.7 4.34 -1 4 C-0.67 2.68 -0.34 1.36 0 0 Z " fill="#270E5E" transform="translate(365,428)"/>
<path d="M0 0 C1.65 0.33 3.3 0.66 5 1 C4.67 2.32 4.34 3.64 4 5 C2.35 4.67 0.7 4.34 -1 4 C-0.67 2.68 -0.34 1.36 0 0 Z " fill="#270E5E" transform="translate(437,404)"/>
<path d="M0 0 C1.98 0.495 1.98 0.495 4 1 C3.67 2.65 3.34 4.3 3 6 C1.68 5.67 0.36 5.34 -1 5 C-0.67 3.35 -0.34 1.7 0 0 Z " fill="#250D5A" transform="translate(341,403)"/>
<path d="M0 0 C1.98 0.495 1.98 0.495 4 1 C3.67 2.65 3.34 4.3 3 6 C1.68 5.67 0.36 5.34 -1 5 C-0.67 3.35 -0.34 1.7 0 0 Z " fill="#260E5D" transform="translate(246,403)"/>
<path d="M0 0 C1.65 0.33 3.3 0.66 5 1 C4.67 2.32 4.34 3.64 4 5 C2.35 4.67 0.7 4.34 -1 4 C-0.67 2.68 -0.34 1.36 0 0 Z " fill="#260E5D" transform="translate(293,356)"/>
<path d="M0 0 C1.98 0.495 1.98 0.495 4 1 C3.67 2.65 3.34 4.3 3 6 C1.68 5.67 0.36 5.34 -1 5 C-0.67 3.35 -0.34 1.7 0 0 Z " fill="#260D5C" transform="translate(389,308)"/>
<path d="M0 0 C1.98 0.495 1.98 0.495 4 1 C3.67 2.65 3.34 4.3 3 6 C1.68 5.67 0.36 5.34 -1 5 C-0.67 3.35 -0.34 1.7 0 0 Z " fill="#260D5C" transform="translate(341,260)"/>
<path d="M0 0 C1.98 0.495 1.98 0.495 4 1 C3.67 2.65 3.34 4.3 3 6 C1.68 5.67 0.36 5.34 -1 5 C-0.67 3.35 -0.34 1.7 0 0 Z " fill="#260D5D" transform="translate(246,260)"/>
<path d="M0 0 C1.32 0 2.64 0 4 0 C4 1.65 4 3.3 4 5 C2.35 4.67 0.7 4.34 -1 4 C-0.67 2.68 -0.34 1.36 0 0 Z " fill="#290F64" transform="translate(461,428)"/>
<path d="M0 0 C1.65 0 3.3 0 5 0 C4.67 1.65 4.34 3.3 4 5 C2.68 4.67 1.36 4.34 0 4 C0 2.68 0 1.36 0 0 Z " fill="#290E63" transform="translate(269,380)"/>
<path d="M0 0 C1.98 0.495 1.98 0.495 4 1 C4 2.32 4 3.64 4 5 C2.35 5 0.7 5 -1 5 C-0.67 3.35 -0.34 1.7 0 0 Z " fill="#2A0F67" transform="translate(246,308)"/>
<path d="M0 0 C1.32 0 2.64 0 4 0 C4 1.65 4 3.3 4 5 C2.35 4.67 0.7 4.34 -1 4 C-0.67 2.68 -0.34 1.36 0 0 Z " fill="#280E61" transform="translate(317,284)"/>
<path d="M0 0 C1.98 0.495 1.98 0.495 4 1 C4 2.32 4 3.64 4 5 C2.35 5 0.7 5 -1 5 C-0.67 3.35 -0.34 1.7 0 0 Z " fill="#280E62" transform="translate(270,284)"/>
<path d="M0 0 C1.65 0 3.3 0 5 0 C4.67 1.65 4.34 3.3 4 5 C2.68 4.67 1.36 4.34 0 4 C0 2.68 0 1.36 0 0 Z " fill="#280E62" transform="translate(269,237)"/>
<path d="M0 0 C1.98 0.495 1.98 0.495 4 1 C4 2.32 4 3.64 4 5 C2.35 4.67 0.7 4.34 -1 4 C-0.67 2.68 -0.34 1.36 0 0 Z " fill="#290F64" transform="translate(461,380)"/>
<path d="M0 0 C1.32 0 2.64 0 4 0 C3.67 1.65 3.34 3.3 3 5 C1.68 4.67 0.36 4.34 -1 4 C-0.67 2.68 -0.34 1.36 0 0 Z " fill="#290F64" transform="translate(222,380)"/>
<path d="M0 0 C1.98 0.495 1.98 0.495 4 1 C4 2.32 4 3.64 4 5 C2.35 4.67 0.7 4.34 -1 4 C-0.67 2.68 -0.34 1.36 0 0 Z " fill="#290E63" transform="translate(437,356)"/>
<path d="M0 0 C1.32 0 2.64 0 4 0 C3.67 1.65 3.34 3.3 3 5 C1.68 4.67 0.36 4.34 -1 4 C-0.67 2.68 -0.34 1.36 0 0 Z " fill="#290E63" transform="translate(317,237)"/>
<path d="M0 0 C1.32 0 2.64 0 4 0 C4 1.65 4 3.3 4 5 C3.01 5 2.02 5 1 5 C0.34 3.68 -0.32 2.36 -1 1 C-0.67 0.67 -0.34 0.34 0 0 Z " fill="#290E63" transform="translate(246,356)"/>
</svg>
